<svg xmlns="http://www.w3.org/2000/svg" fill="none" viewBox="0 0 80 80"><rect width="80" height="80" fill="#F8FAFF" rx="40"/><path fill="#8BAFE7" d="M52.6 27.4h-4.2V26H31.6v1.4h-4.2c-.84 0-1.4.56-1.4 1.4v3.36c0 3.22 2.38 5.88 5.6 6.3v.14c0 4.06 2.8 7.42 6.58 8.26l-.98 2.94h-3.22c-.56 0-1.12.42-1.26.98L31.6 54h16.8l-1.12-3.22c-.14-.56-.7-.98-1.26-.98H42.8l-.98-2.94a8.42 8.42 0 0 0 6.58-8.26v-.14c3.22-.42 5.6-3.08 5.6-6.3V28.8c0-.84-.56-1.4-1.4-1.4zm-21 8.26c-1.54-.42-2.8-1.82-2.8-3.5V30.2h2.8v5.46zM42.8 40L40 38.46 37.2 40l.7-2.8-2.1-2.8h2.94L40 31.6l1.26 2.8h2.94l-2.1 2.8.7 2.8zm8.4-7.84c0 1.68-1.26 3.22-2.8 3.5V30.2h2.8v1.96z"/></svg>