<svg xmlns="http://www.w3.org/2000/svg" fill="none" viewBox="0 0 80 80"><rect width="80" height="80" fill="#F8FAFF" rx="40"/><path fill="#8BAFE7" d="M53.15 50.034l-4.75-3.493c1.816-2.096 2.794-4.89 2.794-7.965C51.194 31.589 45.605 26 38.618 26a12.524 12.524 0 0 0-12.576 12.576c0 6.987 5.59 12.576 12.576 12.576 3.074 0 5.73-1.118 7.965-2.795l3.493 4.89c.839.979 2.376.979 3.214.14.978-.977.839-2.515-.14-3.353zm-4.89-10.06a9.493 9.493 0 0 1-8.244 8.244v-5.45H37.22v5.45c-4.332-.56-7.685-4.053-8.244-8.245h5.45V37.18h-5.45a9.493 9.493 0 0 1 8.244-8.245v5.45h2.795v-5.45c4.331.56 7.685 4.053 8.244 8.245h-5.45v2.794h5.45z"/><path fill="#8BAFE7" d="M38.618 39.973a1.397 1.397 0 1 0 0-2.794 1.397 1.397 0 0 0 0 2.794z"/></svg>