<svg xmlns="http://www.w3.org/2000/svg" fill="none" viewBox="0 0 60 60"><path fill="#FBBD00" d="M14.063 30c0-2.973.819-5.758 2.241-8.142V11.744H6.19C2.176 16.957 0 23.31 0 30s2.176 13.043 6.19 18.256h10.114V38.142A15.84 15.84 0 0 1 14.063 30z"/><path fill="#0F9D58" d="M30 45.938l-7.031 7.03L30 60c6.689 0 13.043-2.176 18.256-6.19V43.706H38.153A15.935 15.935 0 0 1 30 45.938z"/><path fill="#31AA52" d="M16.304 38.142L6.19 48.256a30.492 30.492 0 0 0 2.597 2.957C14.453 56.88 21.987 60 30 60V45.937c-5.815 0-10.912-3.13-13.696-7.795z"/><path fill="#3C79E6" d="M60 30c0-1.825-.165-3.654-.491-5.435l-.264-1.441H30v14.063h14.233a15.866 15.866 0 0 1-6.08 6.52L48.256 53.81a30.48 30.48 0 0 0 2.957-2.597C56.88 45.547 60 38.013 60 30z"/><path fill="#CF2D48" d="M41.27 18.73l1.242 1.243 9.944-9.943-1.243-1.243C45.547 3.12 38.013 0 30 0l-7.031 7.031L30 14.063c4.257 0 8.26 1.657 11.27 4.667z"/><path fill="#EB4132" d="M30 14.063V0C21.987 0 14.453 3.12 8.787 8.787a30.453 30.453 0 0 0-2.597 2.957l10.114 10.114c2.784-4.664 7.88-7.796 13.696-7.796z"/></svg>