<svg xmlns="http://www.w3.org/2000/svg" fill="none" viewBox="0 0 40 40"><g clip-path="url(#clip0)"><path fill="#8BAFE7" d="M7.194 2.17L29.39 15.877l-1.386.327a1.172 1.172 0 1 0 .538 2.281l4.112-.97a1.17 1.17 0 0 0 .693-.474l.01-.015.025-.036.004-.007a1.169 1.169 0 0 0 .094-1.07l-.943-3.98a1.172 1.172 0 1 0-2.28.541l.328 1.386L8.426.175a1.172 1.172 0 0 0-1.232 1.994zM26.536 37.925c0 1.146.52 2.075 1.163 2.075h5.58c.643 0 1.163-.929 1.163-2.075v-4.813h-7.906v4.813z"/><path fill="#8BAFE7" d="M34.475 30.882c0-.647-.524-1.172-1.172-1.172h-5.625c-.648 0-1.172.525-1.172 1.172v2.884h7.97v-2.884zM16.047 36.203c0 2.097.526 3.797 1.174 3.797h5.636c.649 0 1.174-1.7 1.174-3.797v-8.806h-7.984v8.806z"/><path fill="#8BAFE7" d="M24.035 25.03c0-.648-.524-1.173-1.172-1.173h-5.626c-.647 0-1.171.525-1.171 1.172v3.002h7.97V25.03z"/><path fill="#AFCDFB" d="M16.066 30.375h7.97v3.391h-7.97v-3.391zM5.625 18.904h7.97v3.392h-7.97v-3.392z"/><path fill="#8BAFE7" d="M13.595 13.895c0-.647-.525-1.172-1.172-1.172H6.797c-.648 0-1.172.525-1.172 1.172v2.666h7.97v-2.666zM5.636 38.113c0 1.043.526 1.887 1.174 1.887h5.636c.649 0 1.174-.844 1.174-1.887v-4.375H5.636v4.375zM5.636 27.397h7.984v6.34H5.636v-6.34z"/><path fill="#8BAFE7" d="M5.636 16.047h7.984v11.976H5.636V16.047z"/></g><defs><clipPath id="clip0"><path fill="#fff" d="M0 0h40v40H0z"/></clipPath></defs></svg>