<svg xmlns="http://www.w3.org/2000/svg" fill="none" viewBox="0 0 643 385"><path fill="#F8FAFF" d="M57.12 383.609s-85.284-61.247-46.42-141.174c17.969-36.956 42.667-30.745 68.876-24.536 30.479 7.219 63.002 14.443 89.365-46.214C217.974 58.87 228.957-27.495 359.49 8.128 490.02 43.756 436.514 137.25 504.829 146.64c68.316 9.39 122.291 43.249 90.989 116.461-31.311 73.214 46.418 121.294 46.418 121.294l-585.115-.785z"/><path fill="#2573E8" d="M638.241 13.129l-22.948 2.332 7.156 5.837-57.46 68.95-34.75-43.993-39.601 44.383-15.853-24.72-31.009 31.457 9.991 9.991 18.584-18.586 16.918 25.119 40.793-46.044 34.048 44.491 69.289-82.119 7.174 5.85-2.332-22.948z"/><path fill="#699DEE" d="M557.405 318.741s-8.573 13.02-3.687 28.868l2.206-.593s-2.139-17.455 2.348-26.235c4.484-8.78-.867-2.04-.867-2.04z"/><path fill="#4A75CB" d="M286.117 172.522l-16.806 199.861s-1.761 12.115 7.248 12.136c14.819.037 73.75 0 73.75 0s-11.15-2.521-11.016-8.195c.159-6.689 19.646-205.693 19.646-205.693l-72.822 1.891z"/><path fill="#AFCDFB" d="M355.09 380.893c-2.916.011-59.203.187-73.63 0-6.29-.078-7.392-5.592-7.446-9.159a17.616 17.616 0 0 1 .193-2.975l.435-5.193 1.115-13.242.985-11.695 1.264-15.034 1.066-12.686 11.941-142.015 72.823-1.891s-8.208 83.284-14.014 143.906c-.65 6.756-1.264 13.231-1.833 19.277-.185 1.93-.364 3.818-.538 5.655-.536 5.736-1.028 11.001-1.458 15.653-.223 2.451-.432 4.729-.623 6.814-.739 8.176-1.174 13.397-1.18 14.39a8.44 8.44 0 0 0 .141 1.618c1.197 6.369 9.666 6.577 10.759 6.577z"/><path fill="#AFCDFB" d="M458.879 63.764H109.27l40.943 164.462 5.606 22.523 19.069 76.601h354.28L458.879 63.764z"/><path fill="#5486D0" d="M109.269 63.766l-5.675 1.893 63.75 267.414 7.544-5.72-65.619-263.587z"/><path fill="#5486D0" d="M167.344 333.073h352.097l9.722-5.72H174.888l-7.544 5.72z"/><path fill="#4A75CB" d="M290.992 384.597h76.234v-3.624h-76.234v3.624z"/><path fill="#5486D0" d="M347.846 333.072l-.396 2.769-71.692 14.484.982-11.696.47-5.557h70.636z"/><path fill="#699DEE" d="M355.09 380.893c-2.916.011-59.204.187-73.631 0-6.289-.077-7.391-5.591-7.445-9.159l71.356-13.426c-.739 8.177-1.175 13.397-1.18 14.39-.003.58.046 1.116.142 1.618 1.196 6.369 9.663 6.577 10.758 6.577z"/><path fill="#D1E1F7" d="M174.888 327.353l-.001-.005v.005"/><path fill="#A1C3F8" d="M174.888 327.35l-3.385-13.597-9.512-38.216 163.922.032-151.025 51.784"/><path fill="#507DD2" d="M174.888 327.353l-3.385-13.6 3.385 13.6z"/><path fill="#699DEE" d="M458.878 63.765h-349.61l52.691 211.772 353.407.07-56.488-211.842z"/><path fill="#4A75CB" d="M361.417 302.384c-1.011-5.193-6.04-9.404-11.234-9.404-5.196 0-8.59 4.211-7.579 9.404 1.011 5.197 6.037 9.407 11.234 9.407 5.196 0 8.588-4.21 7.579-9.407z"/><path fill="#fff" d="M499.114 266.427H171.773l-37.071-147.678-2.841-11.325-2.426-9.66-5.685-22.65h322.624l6.243 22.65 2.662 9.66 3.124 11.325 40.711 147.678z"/><path fill="#AFCDFB" d="M446.373 75.113H123.751l5.685 22.65h323.181l-6.244-22.65z"/><path fill="#E9F3FE" d="M139.223 82.518c-1.564 0-2.515 1.269-2.126 2.83.39 1.565 1.974 2.834 3.538 2.834 1.564 0 2.515-1.269 2.125-2.833-.39-1.563-1.973-2.83-3.537-2.83zM148.63 82.518c-1.563 0-2.515 1.269-2.125 2.83.39 1.565 1.974 2.834 3.538 2.834 1.563 0 2.515-1.269 2.125-2.833-.39-1.563-1.974-2.83-3.538-2.83zM162.298 85.349c-.389-1.563-1.973-2.83-3.537-2.83-1.564 0-2.515 1.267-2.126 2.83.39 1.564 1.974 2.833 3.538 2.833 1.564 0 2.515-1.269 2.125-2.833z"/><path fill="#E49963" d="M557.445 358.896l-3.407 14.352-5.103-.029-.187-14.323h8.697zM514.513 359.507l-9.693 13.741-3.782-4.852 5.838-10.776 7.637 1.887z"/><path fill="#163560" d="M539.723 170.314c1.76-1.002 3.871-1.111 5.349-1.023-.38-.393-1.127-.536-1.127-.536.914-.136 2.96.772 2.96.772 12.738-4.909 14.738 13.849 14.473 18.208-.27 4.355 4.279 5.778 10.905 9.212 12.648 6.553 13.759 15.324 13.759 15.324a4.834 4.834 0 0 0-.311.201c-.628-1.063-1.919-3.061-3.009-3.362.045.096 1.286 2.747 1.752 4.267-3.732 2.838-10.709 9.127-15.572 13.586.021-.873-.012-2.11-.33-2.764l-.601 3.621c-2.604 2.392-4.401 4.075-4.401 4.075.323-3.522-15.926-22.104-24.402-27.672-2.062-3.036-2.797-8.403-2.854-8.825.359 4.254 1.082 6.641 1.735 7.984-7.177-6.606-2.996-30.414 1.674-33.068z"/><path fill="#E49963" d="M539.667 204.501c-.039.019 4.093 2.169 7.202 1.317 2.927-.799 4.84-4.593 4.802-4.601-1.239-.245-1.6-1.949-1.572-9.265l-.562.109-9.417 1.867s.213 2.963.221 5.754c.008 2.347-.136 4.568-.674 4.819z"/><path fill="#B59FD2" d="M550.316 173.387s-4.648-4.947-10.478-.253c0 0 3.393-.588 10.478.253z"/><path fill="#D68D5D" d="M540.118 193.927s.216 2.965.22 5.755c5.271-.147 8.061-4.956 9.199-7.621l-9.419 1.866z"/><path fill="#163560" d="M550.507 191.036s2.765-4.363 3.426-8.095c.475-2.665-.883-12.541-10.802-11.118 0 0-2.886.284-5.596 2.113-2.154 1.456-5.261 4.598-1.785 13.215l.902 2.91 13.855.975z"/><path fill="#2B478B" d="M502.582 364.631l4.99.153 5.404.165s12.483-13.899 19.485-36.179c.164-.518.336-1.041.519-1.572 3.832-11.173 11.774-25.199 15.961-37.894a196.206 196.206 0 0 0 1.801-5.727c.172-.577.34-1.143.503-1.701 3.084-10.718 3.977-17.757 4.8-25.276l-30.231.24s-4.881 51.348-23.232 107.791z"/><path fill="#E7F1FD" d="M530.043 239.471c.076 14.385-2.112 20.558-2.112 20.558s12.945 6.574 28.328 1.736c.183-.059 12.738-2.924 12.738-2.924-.258-.582-2.546-10.278-2.797-10.812-3.25-6.975-5.716-10.032-6.098-12.176-.716-4.002-.732-8.147-.374-12.053.935-10.342 3.728-18.927 3.728-18.927-4.193-.953-8.116-2.627-12.48-4.264-1.002 1.25-4.07 2.558-6.731 2.497-3.063-.067-4.058-1.378-3.898-2.812-3.267 1.818-5.872 3.535-5.872 3.535-2.777 4.82-8.406 9.501-8.812 16.898-.099 1.818 4.38 18.341 4.38 18.744z"/><path fill="#B59FD2" d="M512.492 218.101c4.437-5.185 15.938-16.427 27.801-17.808l-10.239 19.947s-.574 3.418-3.605 5.41c-7.429 4.881-16.869 7.039-16.869 7.039s-6.395-2.791-15.136-9.197c-2.745-2.01-7.566-9.677-7.566-9.677l1.3-4.352s8.186 4.577 11.11 5.896c1.669.753 5.501 2.55 8.208 3.818a4.213 4.213 0 0 0 4.996-1.076z"/><path fill="#E49963" d="M538.363 196.571s12.467.205 12.475-7.562c.008-7.769 1.624-12.973-6.339-13.433-7.958-.46-9.509 2.503-10.145 5.095-.632 2.592.764 15.646 4.009 15.9z"/><path fill="#163560" d="M538.818 175.387s3.414 9.112 8.653 10.46c5.242 1.347 7.516-.057 7.516-.057s-4.017-3.192-4.854-8.766c0 0-8.738-5.975-11.315-1.637z"/><path fill="#163560" d="M539.666 176.126s-2.549 2.034-3.172 4.012c-.619 1.979-.9 6.05-2.085 5.912 0 0-2.575-6.195.315-9.698 3.065-3.716 4.942-.226 4.942-.226z"/><path fill="#E49963" d="M488.181 209.462s-1.759-6.337-8.723-5.439c-.798.248-3.134 1.18-1.644 3.682 1.1 1.843 1.578.892 3.308 3.37 1.731 2.475 3.611 3.036 5.76 2.739l1.299-4.352zM554.207 372.444s-.409 2.844.651 5.886c0 0 .838 3.805-2.911 3.877-3.748.069-4.668-.283-4.247-2.617.425-2.334 1.235-6.371 1.235-6.371l5.272-.775z"/><path fill="#B59FD2" d="M547.348 383.833s.082.048.238.123h7.335c.144-.075.211-.123.211-.123.42-1.912-.273-5.503-.273-5.503-4.242 3.89-6.899-.099-6.899-.099-.69 1.664-.612 5.602-.612 5.602z"/><path fill="#E49963" d="M492.009 379.969s6.908-7.669 9.028-11.572l5.141 2.632-11.486 10.788-2.691-.352.008-1.496z"/><path fill="#B59FD2" d="M487.72 383.956h9.456c.916-.681 1.763-2.254 2.819-4.369.566-1.129 1.831-1.751 3.133-2.091v6.388h1.961l1.856-6.791c1.222-2.251.098-4.288-.764-6.064-1.002-.002-3.695.681-8.8 6.436-1.679 1.887-3.532 2.563-5.371 2.504a.268.268 0 0 1-.079.04c-3.079 1.386-3.958 3.106-4.211 3.947zM540.345 200.294s-7.213 17.824-7.43 21.431c-.209 3.607-.844 58.987-.844 58.987s.422 2.548-4.456 1.485c-4.883-1.06-6.157-2.12-6.157-2.12s4.67-34.163 3.396-46.045c-1.274-11.882 9.761-31.263 9.761-31.263l5.73-2.475z"/><path fill="#233862" d="M507.568 364.784l5.405.166s12.482-13.899 19.485-36.179c.163-.518.337-1.041.519-1.572 3.83-11.173 11.774-25.199 15.96-37.893a203.887 203.887 0 0 0 1.803-5.728c.17-.577.341-1.143.499-1.701l-4.449-3.378s-13.368 21.642-17.505 42.011c-3.598 17.692-17.987 38.979-21.717 44.274z"/><path fill="#163560" d="M521.762 230.722l.264.809 13.99-4.547s.185-.216.091-.499c-.11-.313-.355-.31-.355-.31l-13.99 4.547z"/><path fill="#2B478B" d="M546.326 322.405c-.076 9.906.422 32.678 1.716 42.104h4.785c2.644 0 3.965-.038 3.965-.038 3.237-16.392 5.538-29.954 7.214-41.642 1.374-9.591 2.6-17.813 3.539-24.892.944-7.121 1.601-13.086 1.84-18.125.035-.793.063-1.567.075-2.315.016-.753.02-1.485.016-2.198l-26.12-2.544c.327 17.353 3.01 43.893 2.97 49.65z"/><path fill="#233862" d="M552.826 364.509c2.647 0 3.964-.038 3.964-.038 3.236-16.392 5.541-29.954 7.217-41.642 1.373-9.591 2.599-17.813 3.539-24.891.943-7.122 1.6-13.088 1.839-18.126l-9.585 5.637s6.118 2.157 3.781 18.496c-2.333 16.34-7.503 58.251-10.755 60.564z"/><path fill="#B59FD2" d="M551.589 279.652s1.839 6.647 8.205 5.797c6.366-.849 15.419-4.667 15.419-4.667s-2.719-8.596-6.101-19.888c-4.097-13.671-9.165-31.294-11.555-42.411-.671-3.116-1.128-5.716-1.297-7.578l-5.282-10.248s-7.875 17.674-8.297 22.128c-.426 4.457 8.908 56.867 8.908 56.867z"/><path fill="#E49963" d="M557.949 222.122l-6.974-21.466c.02.011 8.804 2.615 13.226 4.847 0 0 2.759 3.562 4.47 11.776 0 0 1.806 19.722-2.225 26.937 0 0-12.731 2.547-33.102-4.454v-4.67s22.281 1.167 26.842 1.698l-2.237-14.668z"/><path fill="#9579B8" d="M551.874 232.122c.283 7.215 1.982 21.218 17.117 28.715.04.019.08.041.123.056-4.094-13.671-9.163-31.294-11.554-42.411-2.777 4.155-5.841 9.667-5.686 13.64z"/><path fill="#B59FD2" d="M550.977 200.657s12.92.91 16.033 7.842c3.113 6.932 4.103 29.989.143 36.78 0 0-5.456 1.551-15.098-.251-.12-.022-.236-.046-.359-.07 0 0-3.073-7.532-.316-9.017 0 0 8.134.425 7.284-2.262-.85-2.689-7.687-33.022-7.687-33.022z"/><path fill="#E49963" d="M535.628 236.334s-1.778-2.15-2.155-4.347c-.377-2.195-1.551-3.824-4.616-4.227-3.065-.403-4.382-.446-4.375.416.012.866 2.503 6.895 6.9 10.494s4.246-2.336 4.246-2.336z"/><path fill="#163560" d="M520.756 231.502l1.007-.78.262.809-1.269-.029zM483.854 210.504a.588.588 0 0 1-.305-.086l-81.716-49.688a.59.59 0 0 1 .612-1.006l81.713 49.687a.59.59 0 1 1-.304 1.093z"/><path fill="#71AFBC" d="M227.614 138.833c-1.733 1.469-5.234 4.219-6.633 5.389l3.543 44.322-36.477-16.307-6.632 5.392a44.518 44.518 0 0 0-1.352 10.915c0 24.556 19.906 44.462 44.461 44.462 24.556 0 44.462-19.906 44.462-44.462 0-24.555-16.817-49.711-41.372-49.711z"/><path fill="#60B7FF" d="M213.36 135.103c-19.207 1.514-34.978 15.233-39.566 33.404l43.11 10.916 6.632-5.389-10.176-38.931z"/><path fill="#94D3E1" d="M231.157 138.694c-1.193 0-2.374.048-3.543.139l3.543 44.323-43.11-10.919a44.568 44.568 0 0 0-1.352 10.919c0 24.555 19.907 44.461 44.462 44.461 24.555 0 44.462-19.906 44.462-44.461 0-24.556-19.907-44.462-44.462-44.462z"/><path fill="#8AC9FE" d="M219.993 129.714c-19.207 1.514-34.979 15.234-39.566 33.405l43.109 10.916-3.543-44.321z"/><path fill="#2D7DF5" d="M214.696 146.687a.588.588 0 0 1-.416-1.004l26.545-26.549h170.732a.59.59 0 1 1 0 1.18H241.314l-26.201 26.201a.59.59 0 0 1-.417.172zM266.501 196.146a.59.59 0 0 1-.417-1.004l28.58-28.579h125.843a.59.59 0 0 1 0 1.178H295.149l-28.23 28.234a.592.592 0 0 1-.418.171z"/><path fill="#AFCDFB" d="M415.09 114.779H240.834l-3.532-5.416h174.257l3.531 5.416zM420.504 162.936H294.525l-3.534-5.416h125.983l3.53 5.416zM382.146 260.894h-46.422l-22.362-79.534h46.422l22.362 79.534zM440.391 260.893H393.97l-22.363-79.534h46.422l22.362 79.534z"/><path fill="#2C4EA6" d="M405.621 189.016s15.783 17.714 16.541 24.491c.758 6.778-7.514 17.378-7.514 17.378l-9.027-41.869z"/><path fill="#163560" d="M398.851 375.419s-.334 5.968-1.308 8.537h-19.739c.334-.854 1.112-1.952 2.91-2.296 3.093-.596 8.266-2.991 10.138-7.493 1.969-4.734 7.999 1.252 7.999 1.252zM422.407 375.419s-.336 5.968-1.306 8.537h-19.738c.33-.855 1.105-1.952 2.907-2.297 3.091-.595 8.266-2.99 10.138-7.492 1.971-4.734 7.999 1.252 7.999 1.252z"/><path fill="#163560" d="M387.141 272.738s2.765 19.496 13.085 54.099c10.316 34.604 11.722 49.589 11.722 49.589l11.068-.345s.096-37.815-4.659-55.217c-4.757-17.402-1.026-62.732-1.026-62.732l-30.19 14.606z"/><path fill="#1C468A" d="M381.753 259.201s-.393 29.375 4.219 65.442c4.615 36.066 3.05 51.377 3.05 51.377l11.045.406s6.603-36.083 4.709-54.136c-1.891-18.05 9.039-61.946 9.039-61.946l-32.062-1.143z"/><path fill="#FFB27D" d="M403.138 190.459l-5.885 4.251-8.503-1.747c.115-.755.678-3.893 1.19-6.732.03-.168.062-.335.089-.499.435-2.417.817-4.493.817-4.493l7.943-3.863 2.961-1.44c-.006.051-.231 2.682-.258 3.066-.556 6.822 1.646 11.457 1.646 11.457z"/><path fill="#3867DE" d="M418.563 262.833c-1.709 8.587-30.137 9.604-37.466 1.81-.833-.889-.872-5.023-.557-10.595.613-10.889 2.588-27.271 2.665-35.64.036-4.042.542-8.176 1.212-11.927 1.428-8 3.605-14.281 3.605-14.281s13.886-4.945 16.486-4.104c12.517 4.054 15.764 66.149 14.055 74.737z"/><path fill="#2C4EA6" d="M380.036 254.042c.616-10.889 2.591-27.271 2.668-35.639.035-4.043.541-8.177 1.21-11.928l8.355-1.626s8.166 36.761-12.233 49.193z"/><path fill="#FFB27D" d="M384.56 238.863s.567 1.501-.628 2.507c-1.197 1.007-1.972 2.638-1.698 3.832.273 1.191 2.896 3.135 3.806 2.822.91-.312 2.758-1.882 2.562-2.512-.201-.628 1.244-5.52-.973-7.402-2.22-1.883-3.069.753-3.069.753z"/><path fill="#3867DE" d="M394.403 189.997s-8.145 1.682-14.636 12.221c-6.494 10.542-10.762 18.379-9.566 22.179 1.193 3.799 12.092 16.974 13.974 16.974 1.876 0 4.91-1.506 5.082-4.894 0 0-7.676-12.673-6.165-14.571.645-.812 9.963-9.146 11.293-5.381 2.2 6.23.018-26.528.018-26.528z"/><path fill="#FCA56B" d="M400.898 179.122c-1.747 3.256-8.246 6.073-10.958 7.108.029-.168.062-.335.088-.499l.818-4.493 7.945-3.863c1.756-.026 2.824.406 2.107 1.747z"/><path fill="#FFB27D" d="M387.853 180.706s12.794 4.398 15.157-4.426c2.362-8.824 5.608-14.199-2.464-17.38-8.07-3.182-10.567-.334-12.004 2.4-1.44 2.734-3.959 18.034-.689 19.406z"/><path fill="#163560" d="M389.044 160.45s.815 10.269 2.744 9.823c1.926-.446 3.674-.777 3.39 2.319-.283 3.095-2.952 6.669 2.986 7.217 5.938.547 14.476-16.33 12.845-19.526-4.709-9.22-28.766-11.08-21.965.167z"/><path fill="#2C4EA6" d="M390.922 188.313c.166-.075 10.244-3.353 11.339-2.955 1.094.399 1.744 2.733 1.744 2.733l-16.485 4.107s1.299-2.908 3.402-3.885z"/><path fill="#5B9DFF" d="M5.235 371.585c-1.537 6.297 3.232 12.371 9.715 12.371h150.373c4.609 0 8.621-3.151 9.715-7.628l30.886-126.523c1.537-6.298-3.232-12.372-9.715-12.372H45.836a10 10 0 0 0-9.715 7.629L5.235 371.585z"/><path fill="#4B8FF5" d="M244.775 383.956H73.815L38.049 237.433h170.96l35.767 146.523z"/><path fill="#fff" d="M233.059 375.651H81.479L49.765 245.738h151.58l31.714 129.913z"/><path fill="#337AE6" d="M2.215 383.956l36.312-6.967 35.29 6.967H2.214z"/><path fill="#1C468A" d="M68.27 222.114c-8.572 0-15.569 6.855-15.81 15.37h6.329c.237-5.026 4.399-9.039 9.482-9.039 5.234 0 9.493 4.256 9.493 9.493 0 5.233-4.259 9.492-9.493 9.492a3.165 3.165 0 0 0 0 6.329c8.724 0 15.822-7.098 15.822-15.821 0-8.726-7.098-15.824-15.822-15.824zM108.353 222.114c-8.573 0-15.57 6.855-15.81 15.37h6.328c.237-5.026 4.399-9.039 9.482-9.039 5.235 0 9.493 4.256 9.493 9.493 0 5.233-4.258 9.492-9.493 9.492a3.166 3.166 0 0 0 0 6.329c8.724 0 15.822-7.098 15.822-15.821 0-8.726-7.098-15.824-15.822-15.824zM148.435 222.114c-8.572 0-15.569 6.855-15.81 15.37h6.329c.237-5.026 4.399-9.039 9.481-9.039 5.235 0 9.493 4.256 9.493 9.493 0 5.233-4.258 9.492-9.493 9.492a3.165 3.165 0 0 0 0 6.329c8.725 0 15.822-7.098 15.822-15.821 0-8.726-7.097-15.824-15.822-15.824zM188.517 222.114c-8.572 0-15.568 6.855-15.81 15.37h6.329c.237-5.026 4.399-9.039 9.481-9.039 5.236 0 9.495 4.256 9.495 9.493 0 5.233-4.259 9.492-9.495 9.492a3.165 3.165 0 0 0 0 6.329c8.726 0 15.823-7.098 15.823-15.821 0-8.726-7.097-15.824-15.823-15.824z"/><path fill="#AFCDFB" d="M106.065 291.655H72.042l-6.163-22.975h34.023l6.163 22.975zM154.512 291.655H120.49l-6.162-22.975h34.022l6.162 22.975zM200.88 291.655h-34.023l-6.163-22.975h34.023l6.163 22.975zM115.039 323.516H81.016l-6.162-22.972h34.023l6.162 22.972zM163.487 323.516h-34.023l-6.162-22.972h34.022l6.163 22.972zM209.854 323.516h-34.023l-6.162-22.972h34.022l6.163 22.972zM124.277 356.044H90.255l-6.163-22.972h34.023l6.162 22.972zM172.726 356.044h-34.023l-6.163-22.972h34.023l6.163 22.972zM219.093 356.044H185.07l-6.162-22.972h34.022l6.163 22.972z"/><path fill="#458EFB" d="M38.048 237.433l.479 139.556-36.312 6.967 35.833-146.523z"/></svg>