<svg xmlns="http://www.w3.org/2000/svg" fill="none" viewBox="0 0 40 40"><path fill="#fff" d="M0 8a8 8 0 0 1 8-8h24a8 8 0 0 1 8 8v24a8 8 0 0 1-8 8H8a8 8 0 0 1-8-8V8z"/><path fill="#8BAFE7" d="M29.45 18.256l.2.002h.016c.374.007.744.032 1.11.072V4.72A4.72 4.72 0 0 0 26.056 0H5.58a4.72 4.72 0 0 0-4.72 4.72v27.146a4.72 4.72 0 0 0 4.72 4.72H19.25a11.9 11.9 0 0 1-1.799-6.325c0-6.62 5.382-12.005 11.998-12.005zM17.786 7.706h6.994a1.172 1.172 0 1 1 0 2.344h-6.994a1.172 1.172 0 1 1 0-2.344zm0 4.688h6.994a1.172 1.172 0 1 1 0 2.344h-6.994a1.172 1.172 0 1 1 0-2.344zM13.85 28.879H6.856a1.172 1.172 0 1 1 0-2.343h6.994a1.172 1.172 0 0 1 0 2.343zm0-4.766H6.856a1.172 1.172 0 1 1 0-2.344h6.994a1.172 1.172 0 0 1 0 2.344zm0-4.688H6.856a1.172 1.172 0 1 1 0-2.343h6.994a1.172 1.172 0 0 1 0 2.343zm0-4.688H6.856a1.172 1.172 0 1 1 0-2.343h6.994a1.172 1.172 0 0 1 0 2.344zm0-4.687H6.856a1.172 1.172 0 1 1 0-2.344h6.994a1.172 1.172 0 0 1 0 2.344zm2.764 8.203c0-.647.525-1.171 1.172-1.171h3.368a1.172 1.172 0 1 1 0 2.343h-3.368a1.172 1.172 0 0 1-1.172-1.172z"/><path fill="#8BAFE7" d="M36.39 23.433a9.67 9.67 0 0 0-6.765-2.909h-.017l-.158-.002c-5.366 0-9.732 4.369-9.732 9.739 0 2.133.677 4.158 1.957 5.858A9.656 9.656 0 0 0 29.45 40c5.367 0 9.732-4.369 9.732-9.739 0-2.57-.991-4.996-2.793-6.828zm-3.62 8.44a1.172 1.172 0 1 1-1.64 1.674L29.45 31.9l-1.68 1.646a1.167 1.167 0 0 1-1.658-.018 1.172 1.172 0 0 1 .018-1.657l1.645-1.611-1.645-1.611a1.172 1.172 0 0 1 1.64-1.675l1.68 1.646 1.68-1.646a1.172 1.172 0 1 1 1.64 1.675l-1.645 1.611 1.645 1.611z"/></svg>