<svg xmlns="http://www.w3.org/2000/svg" fill="none" viewBox="0 0 104 60"><path fill="#FF2D39" d="M43.337 32.986c-4.22 5.624-7.886 4.244-10.833-1.325a32.222 32.222 0 0 1-4.034 3.468c-3.11 1.947-6.444.122-6.65-3.572-.072-1.366 0-2.755-.063-4.144a4.327 4.327 0 0 0-.623-1.366c-.468.236-1.141.354-1.369.735-.536.999-1 2.038-1.378 3.105-.55 1.316-1.037 2.673-1.619 3.953a2.997 2.997 0 0 1-3.456 1.665 2.704 2.704 0 0 1-2.447-2.714c-.105-1.77.095-3.562 0-5.342a6.35 6.35 0 0 0-.582-1.688c-.478.395-1.164.685-1.41 1.19-.932 2.019-1.765 4.202-2.697 6.271a7.056 7.056 0 0 1-1.164 1.947 2.749 2.749 0 1 1-4.77-1.303 3.798 3.798 0 0 1-.156-.898c0-4.144-.136-8.364-.063-12.549a5.762 5.762 0 0 1 1.037-3.104 5.01 5.01 0 0 1 2.647-1.761c1.596-.427 2.387.331 2.46 2.07.064 1.334 0 2.682 0 4.025l.696.195c.51-.495.973-1.03 1.391-1.607.874-1.43 1.629-2.94 2.502-4.38a2.927 2.927 0 0 1 3.506-1.51 2.703 2.703 0 0 1 2.074 2.99v4.494l.591.186c.419-.377.814-.785 1.174-1.221 1.246-1.48 2.405-3.046 3.693-4.484a5.342 5.342 0 0 1 1.96-1.407 3.029 3.029 0 0 1 4.316 3.231c-.21 3.005-.396 6.005-.56 9.01-.004.544.023 1.093.082 1.633a6.221 6.221 0 0 0 4.243-4.97c.155-2.478.455-4.942.9-7.384a3.246 3.246 0 0 1 2.957-2.723 3.485 3.485 0 0 1 3.53 1.366 3.9 3.9 0 0 1 .081 4.357c-1.246 2.07-1.164 4.316-.882 6.531a3.455 3.455 0 0 0 1.496 2.383c1.133.55 2.074-.445 2.52-1.439a63.385 63.385 0 0 0 2.073-6.213c.437-1.462.614-3.005 1.037-4.453.642-2.02 2.074-2.909 3.798-2.505a3.6 3.6 0 0 1 2.697 4.071c-.123 1.035-.528 1.965-.687 2.973-.5 3.046-.932 6.1-1.423 9.318 2.346-.736 4.21-1.366 6.121-1.875a9.66 9.66 0 0 1 2.729-.177c1.724 0 2.533.858 3.11 2.805 1.897 6.14 6.008 9.817 12.366 10.884 9.15 1.543 17.865-6.65 16.955-15.872-.064-.612-.145-1.22-.186-1.833a3.107 3.107 0 0 1 2.373-3.7 3.114 3.114 0 0 1 3.78 2.96c1.255 8.387-1.392 15.354-8.114 20.519-9.26 7.044-22.49 5.26-29.547-3.98a21.46 21.46 0 0 1-1.579-2.388c-1.423-2.464-1.878-2.61-4.461-1.375a4.4 4.4 0 0 1-.414.209c-2.583.962-3.547 2.773-3.788 5.56a83.443 83.443 0 0 1-2.074 13.098c-1.392 5.496-4.762 6.472-9.337 3.104-5.653-4.112-6.69-10.466-2.365-15.862a36.583 36.583 0 0 1 6.299-5.755 3.224 3.224 0 0 0 1.537-3.427zM42.91 43.28l-.642-.282a38.22 38.22 0 0 0-2.447 3.695 3.108 3.108 0 0 0 .696 3.667c.664.713 1.351.912 1.538-.354.336-2.274.536-4.48.855-6.726z"/><path fill="#FF2D39" d="M86.56 10.021a6.215 6.215 0 0 1 2.374-5.664c1.288-1.148 2.438-2.473 3.716-3.644A5.489 5.489 0 0 1 94.205 0c.228.477.387.98.478 1.502.064 1.834.05 3.667 0 5.51 0 1.285.569 1.852 1.856 1.843h5.666c.473.081.933.236 1.36.454a4.582 4.582 0 0 1-.614 1.438c-1.505 1.593-3.11 3.105-4.639 4.67a4.604 4.604 0 0 1-4.066 1.358 5.71 5.71 0 0 0-5.448 2.246c-1.61 1.843-3.497 3.436-5.19 5.229a2.956 2.956 0 0 0-.736 1.956c.269 3.572-2.42 6.68-5.994 6.944-3.58.267-6.695-2.415-6.958-5.982a5.517 5.517 0 0 1-.014-.672c.123-3.513 3.079-6.263 6.6-6.14.176.004.358.018.536.04.9.15 1.819-.181 2.42-.871 1.732-1.802 3.474-3.604 5.343-5.27 1.36-1.157 2.192-2.4 1.755-4.234z"/><path fill="#FF2D39" d="M57.354 17.94c.177-.548.4-1.08.664-1.592C62.51 8.628 71.375 4.543 80.18 6.14c2.146.413 3.36 1.865 3.051 3.667-.309 1.802-1.941 2.877-4.152 2.473a15.002 15.002 0 0 0-15.426 6.804 9.348 9.348 0 0 1-.933 1.398 2.943 2.943 0 0 1-3.497.758c-1.237-.523-1.892-1.526-1.87-3.3z"/></svg>