<svg xmlns="http://www.w3.org/2000/svg" fill="none" viewBox="0 0 38 60"><path fill="#FF9800" d="M19 32.47c8.966 0 16.235-7.269 16.235-16.235C35.235 7.268 27.966 0 19 0S2.765 7.269 2.765 16.235C2.776 25.197 10.038 32.459 19 32.47zm0-24.977a8.742 8.742 0 1 1 0 17.484 8.742 8.742 0 0 1 0-17.484z"/><path fill="#FF9800" d="M34.903 40.162a6.29 6.29 0 0 0 2.83-5.245 4.53 4.53 0 0 0-2.54-4.133 4.745 4.745 0 0 0-4.996.47 19.005 19.005 0 0 1-22.391 0 4.77 4.77 0 0 0-4.996-.47 4.536 4.536 0 0 0-2.542 4.13 6.296 6.296 0 0 0 2.83 5.246 28.833 28.833 0 0 0 7.318 3.497c.44.136.893.263 1.36.38l-7.547 7.38a4.995 4.995 0 1 0 7.078 7.048L19 50.503l7.708 7.977a4.995 4.995 0 1 0 7.053-7.073l-7.535-7.373c.468-.12.923-.248 1.366-.382a28.724 28.724 0 0 0 7.31-3.49z"/></svg>