<svg xmlns="http://www.w3.org/2000/svg" fill="none" viewBox="0 0 21 24"><path fill="#fff" fill-rule="evenodd" d="M18.808 17.778c-.604-.808-1.585-1.98-2.425-2.091-.51-.067-1.098.383-1.677.807-.113.06-.986.612-1.091.645-.56.17-1.752.219-2.474-.48-.694-.675-1.793-1.924-2.68-3.069-.846-1.179-1.734-2.597-2.189-3.466-.474-.902-.133-2.094.161-2.62.054-.094.703-.803.848-.968l.022.027c.538-.48 1.1-.968 1.164-1.496.105-.879-.74-2.158-1.345-2.968-.604-.812-1.54-2.232-2.815-2.031-.48.075-.894.253-1.302.51L2.994.564 2.926.62l-.035.019.004.006c-.234.192-.903.723-.98.795-.827.782-2.072 2.622-1.11 5.933.715 2.46 2.238 5.349 4.314 8.27l-.012.011c.102.141.206.268.312.405.1.14.197.277.298.415l.014-.01c2.203 2.819 4.512 5.072 6.62 6.4 2.838 1.788 4.855.983 5.787.342.087-.061.754-.611.98-.793l.005.006c.009-.009.014-.021.026-.03l.06-.05-.008-.011c.342-.351.616-.726.805-1.199.495-1.244-.593-2.54-1.198-3.351z" clip-rule="evenodd"/></svg>