<svg xmlns="http://www.w3.org/2000/svg" fill="none" viewBox="0 0 20 20"><g fill="#2573E8" fill-rule="evenodd" clip-path="url(#clip0)" clip-rule="evenodd"><path d="M12.798 4.074L9.842 6.748a.974.974 0 0 0-.205.318 1.023 1.023 0 0 0 .205 1.075l2.956 2.674c.399.414 1.32.565 1.32.06V8.674h4.695c.656 0 1.19-.53 1.19-1.183 0-.652-.534-1.182-1.19-1.182h-4.695V4.134c0-.348-.88-.384-1.32-.06z"/><path d="M16.507 14.815c-.504-.674-1.321-1.65-2.021-1.742-.426-.057-.915.318-1.398.672-.094.05-.821.51-.91.538-.465.14-1.46.182-2.06-.4-.58-.563-1.495-1.604-2.233-2.558-.706-.982-1.446-2.164-1.825-2.889-.395-.75-.11-1.745.134-2.182.045-.079.586-.67.707-.808l.018.023c.448-.4.917-.806.97-1.246.087-.733-.617-1.8-1.12-2.474-.504-.676-1.284-1.86-2.347-1.693a2.81 2.81 0 0 0-1.084.425l-.01-.01-.056.045-.03.017.004.005c-.195.16-.753.602-.817.662-.689.651-1.727 2.185-.924 4.944.595 2.05 1.864 4.457 3.594 6.892l-.01.01c.085.117.172.223.26.337.083.116.164.23.249.346l.011-.009c1.836 2.349 3.76 4.226 5.517 5.334 2.365 1.49 4.046.819 4.822.285.073-.051.628-.51.817-.661l.004.005c.007-.008.012-.018.022-.025l.05-.042-.007-.01a3.01 3.01 0 0 0 .67-.998c.414-1.037-.493-2.117-.997-2.793z"/></g><defs><clipPath id="clip0"><path fill="#fff" d="M0 0h20v20H0z"/></clipPath></defs></svg>