<svg xmlns="http://www.w3.org/2000/svg" fill="none" viewBox="0 0 336 391"><path fill="#AFCDFB" d="M145.779 67.585L336 8.447 189.675 109.825l-43.896-42.24z"/><path fill="#AFCDFB" d="M336 8.448L131.146 42.24 87.249 0 336 8.448z"/><path fill="#5B77AC" d="M131.146 42.24v50.691l14.633-25.345L336 8.448 131.146 42.24z"/><path fill="#AFCDFB" d="M131.146 92.931l29.266-11.264-14.633-14.081-14.633 25.345z"/><path fill="#5B77AC" d="M145.779 67.585l14.633 14.082-4.669 1.793-9.964-15.875z"/><path fill="#DADBD8" d="M108.038 75.193a186.411 186.411 0 0 0-9.745 5.018 2.702 2.702 0 0 0 2.611 4.73c3.223-1.78 6.386-3.4 9.462-4.87a2.703 2.703 0 0 0-2.328-4.878zM83.103 89.505a207.567 207.567 0 0 0-17.09 12.835 2.704 2.704 0 0 0 3.464 4.15 202.429 202.429 0 0 1 16.644-12.504 2.7 2.7 0 0 0 .732-3.75 2.704 2.704 0 0 0-3.75-.73zm-30.254 24.841a193.353 193.353 0 0 0-14.297 15.911 2.701 2.701 0 1 0 4.215 3.379 187.059 187.059 0 0 1 13.897-15.461 2.704 2.704 0 0 0 .007-3.822 2.706 2.706 0 0 0-3.822-.007zm-24.772 30.349a173.804 173.804 0 0 0-10.589 18.617 2.7 2.7 0 0 0 1.239 3.613 2.7 2.7 0 0 0 3.614-1.236 168.788 168.788 0 0 1 10.26-18.04 2.701 2.701 0 1 0-4.524-2.954zm-17.584 35.046a168.428 168.428 0 0 0-6.035 20.558 2.698 2.698 0 0 0 2.04 3.228 2.698 2.698 0 0 0 3.23-2.039 162.982 162.982 0 0 1 5.842-19.895 2.702 2.702 0 1 0-5.077-1.852zm-9.06 38.145A197.147 197.147 0 0 0 0 239.218a2.7 2.7 0 0 0 2.667 2.734 2.7 2.7 0 0 0 2.737-2.665c.088-6.964.558-13.902 1.393-20.749a2.701 2.701 0 1 0-5.364-.652zM.59 257.031a186.133 186.133 0 0 0 2.908 21.203 2.703 2.703 0 0 0 3.174 2.129 2.703 2.703 0 0 0 2.127-3.174 180.974 180.974 0 0 1-2.823-20.583 2.702 2.702 0 0 0-5.386.425zm7.233 38.519a165.082 165.082 0 0 0 7.55 20.057 2.702 2.702 0 1 0 4.922-2.229 159.76 159.76 0 0 1-7.304-19.402 2.702 2.702 0 1 0-5.168 1.574zm15.852 35.893A148.194 148.194 0 0 0 36.03 349a2.696 2.696 0 0 0 3.8.378 2.698 2.698 0 0 0 .379-3.8 142.6 142.6 0 0 1-11.902-16.92 2.7 2.7 0 0 0-3.707-.922 2.701 2.701 0 0 0-.925 3.707zm24.533 30.676a145.01 145.01 0 0 0 16.616 13.603 2.7 2.7 0 1 0 3.106-4.42 140.096 140.096 0 0 1-15.998-13.098 2.702 2.702 0 0 0-3.724 3.915zM80.178 385.185a159.768 159.768 0 0 0 9.862 4.859c1.359.616 2.959.011 3.572-1.351a2.7 2.7 0 0 0-1.35-3.573 156.058 156.058 0 0 1-9.528-4.698 2.703 2.703 0 0 0-2.556 4.763z"/></svg>