<svg xmlns="http://www.w3.org/2000/svg" fill="none" viewBox="0 0 1088 233"><mask id="a" width="1088" height="233" x="0" y="0" maskUnits="userSpaceOnUse"><rect width="1088" height="233" fill="#fff" rx="10"/></mask><g mask="url(#a)"><path fill="url(#paint0_linear)" fill-rule="evenodd" d="M607.196 185.849c4.955 4.899 8.445 9.822 10.142 12.861a52.3 52.3 0 0 1-14.428-7.64 53.493 53.493 0 0 1-12.943 10.15c1.169-3.302 3.789-8.785 7.857-14.512-5.288-5.167-8.392-10.436-9.608-13.601 5.198 2.019 9.859 4.953 13.877 8.182 3.421-3.911 7.525-7.649 12.31-10.584-.673 3.339-2.857 9.092-7.207 15.144z" clip-rule="evenodd"/><ellipse fill="#FFA400" rx="2.568" ry="2.547" transform="matrix(-.62506 .78057 -.75103 -.66027 662.941 197.957)"/><path stroke="#FFA400" stroke-linecap="round" stroke-width="1.603" d="M674.841 194.007c8.988-3.513 29.218-14.896 38.241-32.326"/><path stroke="#23BB86" stroke-linecap="round" stroke-width="1.603" d="M553.853 243.411c-.141-5.974-1.737-21.448-6.987-35.559"/><path fill="url(#paint1_linear)" fill-rule="evenodd" d="M711.094 61.442c1.777 4.48 2.64 8.55 2.889 10.928a37.607 37.607 0 0 1-6.931-8.934 34.777 34.777 0 0 1-10.718 2.537c1.599-1.709 4.677-4.35 8.716-6.722-1.913-4.743-2.444-8.914-2.361-11.232 2.691 2.764 4.807 5.94 6.445 9.11 3.159-1.432 6.695-2.559 10.441-2.99-1.302 1.876-4.18 4.812-8.481 7.303z" clip-rule="evenodd"/><path fill="url(#paint2_linear)" fill-rule="evenodd" d="M757.185 73.405c1.183 2.983 1.757 5.69 1.923 7.274a25.042 25.042 0 0 1-4.614-5.946 23.141 23.141 0 0 1-7.134 1.689c1.064-1.138 3.113-2.896 5.802-4.475-1.273-3.157-1.627-5.934-1.572-7.477 1.792 1.84 3.2 3.954 4.291 6.065 2.102-.954 4.455-1.703 6.949-1.99-.866 1.248-2.782 3.203-5.645 4.86z" clip-rule="evenodd"/><path fill="url(#paint3_linear)" fill-rule="evenodd" d="M819.5 66.918c1.778 4.48 2.64 8.55 2.889 10.929a37.633 37.633 0 0 1-6.931-8.934 34.774 34.774 0 0 1-10.717 2.536c1.599-1.709 4.676-4.35 8.716-6.721-1.913-4.743-2.445-8.915-2.362-11.233 2.691 2.764 4.807 5.94 6.446 9.11 3.158-1.432 6.694-2.559 10.441-2.99-1.302 1.877-4.18 4.812-8.482 7.303z" clip-rule="evenodd"/><ellipse fill="#2F235A" rx="2.521" ry="2.594" transform="matrix(-.89113 .45375 -.42074 -.90718 748.952 25.921)"/><ellipse fill="#FE9076" rx="2.521" ry="2.594" transform="matrix(-.89113 .45375 -.42074 -.90718 728.702 119.647)"/><ellipse fill="#FFA400" rx="2.521" ry="2.594" transform="matrix(-.89113 .45375 -.42074 -.90718 814.715 3.985)"/><ellipse fill="#23BB86" rx="2.521" ry="2.594" transform="matrix(-.89113 .45375 -.42074 -.90718 692.883 9.6)"/><path stroke="#FE9076" stroke-linecap="round" stroke-width="1.603" d="M738.761 126.667c8.468 4.722 30.012 13.047 48.449 8.572"/><path stroke="#FFA400" stroke-linecap="round" stroke-width="1.603" d="M827.118 5.468c9.573.635 32.475-1.107 47.501-13.162"/><path stroke="#23BB86" stroke-linecap="round" stroke-width="1.603" d="M697.422-1.161c2.196-5.514 6.766-20.324 7.469-35.451"/><path fill="url(#paint4_linear)" fill-rule="evenodd" d="M925.72 43.168c-1.383 4.63-3.216 8.33-4.483 10.322a39.696 39.696 0 0 1 .162-11.512c-3.143-1.096-6.476-2.775-9.77-5.267 2.273-.234 6.25-.188 10.801.712 1.44-4.924 3.589-8.479 5.073-10.2.369 3.93.045 7.788-.642 11.32 3.299 1.028 6.7 2.543 9.836 4.733-2.147.563-6.153.877-10.977-.108z" clip-rule="evenodd"/><path fill="url(#paint5_linear)" fill-rule="evenodd" d="M953.721 83.35c-.921 3.083-2.14 5.546-2.984 6.87a26.438 26.438 0 0 1 .108-7.661 23.69 23.69 0 0 1-6.504-3.506c1.513-.156 4.161-.125 7.19.474.959-3.278 2.389-5.644 3.377-6.79.246 2.616.03 5.184-.428 7.536 2.196.683 4.46 1.692 6.547 3.15-1.429.374-4.095.584-7.306-.072z" clip-rule="evenodd"/><path fill="url(#paint6_linear)" fill-rule="evenodd" d="M1005.47 120.305c-1.39 4.631-3.22 8.331-4.49 10.322-.54-4.218-.39-8.09.17-11.512-3.147-1.096-6.48-2.774-9.774-5.267 2.273-.234 6.25-.188 10.804.712 1.44-4.923 3.59-8.479 5.07-10.199.37 3.929.05 7.787-.64 11.32 3.3 1.027 6.7 2.543 9.83 4.733-2.14.562-6.15.877-10.97-.109z" clip-rule="evenodd"/><path fill="url(#paint7_linear)" fill-rule="evenodd" d="M1026.35 11.028c-2.03 6.812-4.73 12.255-6.59 15.185a58.623 58.623 0 0 1 .23-16.937c-4.62-1.612-9.52-4.081-14.37-7.748 3.34-.345 9.2-.277 15.89 1.047 2.12-7.243 5.28-12.474 7.46-15.006.55 5.781.07 11.457-.94 16.655 4.85 1.511 9.86 3.74 14.47 6.963-3.16.828-9.05 1.29-16.15-.16z" clip-rule="evenodd"/><ellipse fill="#2F235A" rx="2.504" ry="2.61" transform="matrix(-.96737 -.25336 .23204 -.9727 976.51 41.41)"/><ellipse fill="#FE9076" rx="2.504" ry="2.61" transform="matrix(-.96737 -.25336 .23204 -.9727 903.547 99.635)"/><ellipse fill="#FFA400" rx="2.504" ry="2.61" transform="matrix(-.96737 -.25336 .23204 -.9727 1040.37 68.843)"/><path stroke="#FE9076" stroke-linecap="round" stroke-width="1.603" d="M906.957 111.784c3.597 9.317 15.01 30.195 31.886 39.169"/><path stroke="#FFA400" stroke-linecap="round" stroke-width="1.603" d="M1048.97 78.324c6.95 6.928 25.57 21.002 44.48 21.871"/><path fill="url(#paint8_linear)" fill-rule="evenodd" d="M827.578 198.272c3.869 5.876 6.301 11.454 7.356 14.797a53.711 53.711 0 0 1-12.588-10.628 52.071 52.071 0 0 1-14.68 7.093c1.801-2.972 5.457-7.761 10.575-12.472-4.141-6.21-6.126-12.042-6.685-15.404 4.681 3.113 8.655 7.002 11.941 11.039 4.125-3.076 8.884-5.834 14.148-7.657-1.324 3.117-4.606 8.267-10.067 13.232z" clip-rule="evenodd"/><ellipse fill="#FFA400" rx="2.543" ry="2.572" transform="matrix(-.77438 .63273 -.59704 -.80221 879.681 222.311)"/><path stroke="#FFA400" stroke-linecap="round" stroke-width="1.603" d="M892.106 221.053c9.489-1.469 31.542-8.174 43.84-23.246"/><path stroke="#23BB86" stroke-linecap="round" stroke-width="1.603" d="M763.939 242.892c1.052-5.872 2.575-21.355.254-36.303"/><path fill="url(#paint9_linear)" fill-rule="evenodd" d="M1052.81 168.272c3.87 5.876 6.3 11.454 7.36 14.797a53.649 53.649 0 0 1-12.59-10.628 52.138 52.138 0 0 1-14.68 7.093c1.8-2.973 5.46-7.761 10.58-12.472-4.14-6.211-6.13-12.042-6.69-15.404 4.68 3.113 8.66 7.002 11.94 11.038 4.13-3.076 8.89-5.833 14.15-7.657-1.32 3.118-4.61 8.267-10.07 13.233z" clip-rule="evenodd"/><ellipse fill="#2F235A" rx="2.543" ry="2.572" transform="matrix(-.77438 .63273 -.59704 -.80221 1044.96 228.127)"/><ellipse fill="#23BB86" rx="2.543" ry="2.572" transform="matrix(-.77438 .63273 -.59704 -.80221 986.876 224.409)"/><path stroke="#23BB86" stroke-linecap="round" stroke-width="1.603" d="M989.174 212.892c1.052-5.872 2.576-21.355.254-36.303"/></g><defs><linearGradient id="paint0_linear" x1="613.969" x2="585.579" y1="196.322" y2="173.588" gradientUnits="userSpaceOnUse"><stop stop-color="#FFE89E"/><stop offset="1" stop-color="#FFBF1A"/></linearGradient><linearGradient id="paint1_linear" x1="712.524" x2="701.096" y1="69.909" y2="47.465" gradientUnits="userSpaceOnUse"><stop stop-color="#FFE89E"/><stop offset="1" stop-color="#FFBF1A"/></linearGradient><linearGradient id="paint2_linear" x1="758.137" x2="750.529" y1="79.041" y2="64.101" gradientUnits="userSpaceOnUse"><stop stop-color="#FFE89E"/><stop offset="1" stop-color="#FFBF1A"/></linearGradient><linearGradient id="paint3_linear" x1="820.931" x2="809.503" y1="75.385" y2="52.941" gradientUnits="userSpaceOnUse"><stop stop-color="#FFE89E"/><stop offset="1" stop-color="#FFBF1A"/></linearGradient><linearGradient id="paint4_linear" x1="921.628" x2="928.05" y1="50.621" y2="26.1" gradientUnits="userSpaceOnUse"><stop stop-color="#FFE89E"/><stop offset="1" stop-color="#FFBF1A"/></linearGradient><linearGradient id="paint5_linear" x1="950.997" x2="955.272" y1="88.312" y2="71.99" gradientUnits="userSpaceOnUse"><stop stop-color="#FFE89E"/><stop offset="1" stop-color="#FFBF1A"/></linearGradient><linearGradient id="paint6_linear" x1="1001.37" x2="1007.8" y1="127.759" y2="103.238" gradientUnits="userSpaceOnUse"><stop stop-color="#FFE89E"/><stop offset="1" stop-color="#FFBF1A"/></linearGradient><linearGradient id="paint7_linear" x1="1020.33" x2="1029.78" y1="21.993" y2="-14.083" gradientUnits="userSpaceOnUse"><stop stop-color="#FFE89E"/><stop offset="1" stop-color="#FFBF1A"/></linearGradient><linearGradient id="paint8_linear" x1="832.114" x2="808.876" y1="209.996" y2="181.556" gradientUnits="userSpaceOnUse"><stop stop-color="#FFE89E"/><stop offset="1" stop-color="#FFBF1A"/></linearGradient><linearGradient id="paint9_linear" x1="1057.35" x2="1034.11" y1="179.996" y2="151.556" gradientUnits="userSpaceOnUse"><stop stop-color="#FFE89E"/><stop offset="1" stop-color="#FFBF1A"/></linearGradient></defs></svg>