<svg xmlns="http://www.w3.org/2000/svg" fill="none" viewBox="0 0 1096 353"><mask id="a" width="1088" height="345" x="4" y="0" maskUnits="userSpaceOnUse"><rect width="1088" height="345" x="4" fill="#fff" rx="10"/></mask><g mask="url(#a)"><g opacity=".4"><path fill="url(#paint0_linear)" fill-rule="evenodd" d="M21.548 205.162c2.898 11.51 3.673 21.746 3.496 27.658-6.473-7.896-11.019-16.085-14.147-23.924-8.037 2.244-17.21 3.559-27.324 3.144 4.52-3.735 13.003-9.332 23.774-13.993-3.146-12.193-3.07-22.586-2.092-28.251 5.728 7.559 9.897 15.962 12.889 24.217 8.28-2.608 17.392-4.357 26.791-4.337-3.84 4.231-11.93 10.61-23.387 15.486z" clip-rule="evenodd"/><path fill="url(#paint1_linear)" fill-rule="evenodd" d="M131.434 247.786c1.929 7.661 2.445 14.474 2.327 18.409a60.378 60.378 0 0 1-9.416-15.923 58.532 58.532 0 0 1-18.189 2.092c3.009-2.486 8.656-6.212 15.826-9.314-2.095-8.117-2.044-15.035-1.393-18.806 3.813 5.032 6.588 10.625 8.579 16.121 5.512-1.736 11.577-2.9 17.833-2.887-2.556 2.816-7.941 7.062-15.567 10.308z" clip-rule="evenodd"/><path fill="url(#paint2_linear)" fill-rule="evenodd" d="M287.554 249.783c2.899 11.51 3.674 21.747 3.496 27.658-6.473-7.896-11.018-16.085-14.146-23.923-8.038 2.243-17.21 3.559-27.325 3.143 4.519-3.735 13.003-9.332 23.774-13.993-3.146-12.193-3.069-22.586-2.091-28.251 5.728 7.559 9.897 15.962 12.888 24.217 8.28-2.608 17.392-4.357 26.791-4.337-3.841 4.231-11.93 10.61-23.387 15.486z" clip-rule="evenodd"/><path fill="url(#paint3_linear)" fill-rule="evenodd" d="M194.243-4.999c4.265 16.933 5.405 31.994 5.144 40.69-9.523-11.616-16.21-23.664-20.813-35.196-11.825 3.3-25.32 5.236-40.201 4.625 6.649-5.496 19.131-13.73 34.978-20.587-4.629-17.94-4.516-33.23-3.077-41.564 8.427 11.12 14.56 23.483 18.961 35.629 12.183-3.837 25.589-6.41 39.416-6.381-5.65 6.225-17.551 15.61-34.408 22.784z" clip-rule="evenodd"/><ellipse fill="#2F235A" rx="6.312" ry="6.384" transform="matrix(-.93954 .34243 -.29957 -.95408 126.916 128.859)"/><ellipse fill="#FE9076" rx="6.312" ry="6.384" transform="matrix(-.93954 .34243 -.29957 -.95408 45.655 353.103)"/><ellipse fill="#FFA400" rx="6.312" ry="6.384" transform="matrix(-.93954 .34243 -.29957 -.95408 296.704 93.925)"/><path stroke="#FE9076" stroke-linecap="round" stroke-width="1.603" d="M68.168 373.228c19.347 14.026 69.8 40.659 116.841 34.976"/><path stroke="#FFA400" stroke-linecap="round" stroke-width="1.603" d="M326.852 101.132c23.439 4.314 80.602 6.624 121.744-18.645"/><path stroke="#23BB86" stroke-linecap="round" stroke-width="1.603" d="M8.63 47.558C15.894 34.654 32.12-.385 38.896-37.315"/></g><g opacity=".4"><path fill="url(#paint4_linear)" fill-rule="evenodd" d="M865.991 338.589c10.88 4.745 19.453 10.391 24.022 14.146-10.206.293-19.465-1.118-27.58-3.435-3.139 7.731-7.707 15.793-14.221 23.543-.192-5.861.567-15.996 3.466-27.368-11.572-4.967-19.748-11.383-23.633-15.621 9.483.09 18.681 1.93 27.043 4.611 2.999-8.147 7.188-16.426 12.95-23.851 1 5.626 1.101 15.927-2.047 27.975z" clip-rule="evenodd"/><path fill="url(#paint5_linear)" fill-rule="evenodd" d="M966.912 277.705c7.241 3.158 12.947 6.916 15.988 9.415a60.399 60.399 0 0 1-18.357-2.286 58.505 58.505 0 0 1-9.466 15.671c-.128-3.9.378-10.647 2.307-18.217-7.703-3.306-13.146-7.577-15.732-10.398 6.313.06 12.436 1.285 18.002 3.069 1.997-5.422 4.784-10.933 8.62-15.875.665 3.745.733 10.602-1.362 18.621z" clip-rule="evenodd"/><path fill="url(#paint6_linear)" fill-rule="evenodd" d="M1063.96 155.395c10.88 4.745 19.45 10.391 24.02 14.146-10.21.293-19.47-1.118-27.58-3.435-3.14 7.731-7.71 15.794-14.22 23.543-.19-5.86.56-15.996 3.46-27.368-11.57-4.967-19.74-11.383-23.63-15.621 9.48.09 18.68 1.93 27.04 4.611 3-8.147 7.19-16.426 12.95-23.85 1 5.626 1.1 15.926-2.04 27.974z" clip-rule="evenodd"/><path fill="url(#paint7_linear)" fill-rule="evenodd" d="M805.301 73.432c16.006 6.98 28.62 15.287 35.342 20.811-15.015.432-28.638-1.643-40.577-5.053-4.618 11.375-11.339 23.236-20.922 34.637-.283-8.621.834-23.533 5.099-40.264-17.025-7.308-29.055-16.747-34.77-22.982 13.952.133 27.485 2.839 39.786 6.783 4.414-11.985 10.575-24.166 19.054-35.09 1.47 8.278 1.619 23.433-3.012 41.158z" clip-rule="evenodd"/><ellipse fill="#2F235A" rx="6.312" ry="6.384" transform="matrix(-.30357 .95281 -.9381 -.34637 870.047 208.557)"/><ellipse fill="#FFA400" rx="6.312" ry="6.384" transform="matrix(-.30357 .95281 -.9381 -.34637 946.228 52.85)"/><ellipse fill="#23BB86" rx="6.312" ry="6.384" transform="matrix(-.30357 .95281 -.9381 -.34637 744.207 279.503)"/><path stroke="#FE9076" stroke-linecap="round" stroke-width="1.603" d="M1027.48 404.47c22.93-6.731 74.85-30.367 99.12-71.063"/><path stroke="#FFA400" stroke-linecap="round" stroke-width="1.603" d="M970.366 33.402c17.746-15.908 54.524-59.726 59.694-107.731"/><path stroke="#23BB86" stroke-linecap="round" stroke-width="1.603" d="M733.387 252.438c-5.768-13.639-23.572-47.903-48.648-75.848"/></g></g><defs><linearGradient id="paint0_linear" x1="22.261" x2="1.044" y1="226.358" y2="168.144" gradientUnits="userSpaceOnUse"><stop stop-color="#FFE89E"/><stop offset="1" stop-color="#FFBF1A"/></linearGradient><linearGradient id="paint1_linear" x1="131.908" x2="117.785" y1="261.894" y2="223.145" gradientUnits="userSpaceOnUse"><stop stop-color="#FFE89E"/><stop offset="1" stop-color="#FFBF1A"/></linearGradient><linearGradient id="paint2_linear" x1="288.266" x2="267.049" y1="270.98" y2="212.766" gradientUnits="userSpaceOnUse"><stop stop-color="#FFE89E"/><stop offset="1" stop-color="#FFBF1A"/></linearGradient><linearGradient id="paint3_linear" x1="195.292" x2="164.077" y1="26.186" y2="-59.461" gradientUnits="userSpaceOnUse"><stop stop-color="#FFE89E"/><stop offset="1" stop-color="#FFBF1A"/></linearGradient><linearGradient id="paint4_linear" x1="883.199" x2="824.162" y1="350.986" y2="332.177" gradientUnits="userSpaceOnUse"><stop stop-color="#FFE89E"/><stop offset="1" stop-color="#FFBF1A"/></linearGradient><linearGradient id="paint5_linear" x1="978.364" x2="939.068" y1="285.957" y2="273.437" gradientUnits="userSpaceOnUse"><stop stop-color="#FFE89E"/><stop offset="1" stop-color="#FFBF1A"/></linearGradient><linearGradient id="paint6_linear" x1="1081.16" x2="1022.13" y1="167.793" y2="148.984" gradientUnits="userSpaceOnUse"><stop stop-color="#FFE89E"/><stop offset="1" stop-color="#FFBF1A"/></linearGradient><linearGradient id="paint7_linear" x1="830.617" x2="743.761" y1="91.671" y2="63.999" gradientUnits="userSpaceOnUse"><stop stop-color="#FFE89E"/><stop offset="1" stop-color="#FFBF1A"/></linearGradient></defs></svg>