<svg xmlns="http://www.w3.org/2000/svg" fill="none" viewBox="0 0 360 360"><path fill="#2573E8" d="M359.964 194.708c-8.27 99.208-95.398 172.929-194.607 164.658a180.249 180.249 0 0 1-101.448-42.017l50.523-50.522c48.14 36.373 116.651 26.835 153.025-21.305a109.254 109.254 0 0 0 21.036-50.767l71.471-.047z"/><path fill="#A1C3F8" d="M359.964 164.66h-71.471c-6.683-48.406-44.741-86.464-93.147-93.147V0c87.71 7.344 157.297 76.949 164.618 164.66z"/><path fill="#94D3E1" d="M165.299 0v71.513c-59.727 8.232-101.471 63.324-93.239 123.05a109.17 109.17 0 0 0 21.125 51.012l-50.523 50.522C-21.634 220.056-12.113 106.29 63.928 41.993A180.302 180.302 0 0 1 165.3 0z"/></svg>