<svg xmlns="http://www.w3.org/2000/svg" fill="none" viewBox="0 0 420 420"><g clip-path="url(#clip0)"><path fill="#AFCDFB" d="M354.227 420.113H65.774a5.314 5.314 0 0 1-5.321-5.321V49.245a5.314 5.314 0 0 1 5.32-5.32H354.34a5.314 5.314 0 0 1 5.32 5.32v365.661c-.113 2.83-2.49 5.207-5.433 5.207z"/><path fill="#fff" d="M89.887 65.434v297.509h198.339V321.17h41.887V65.434H89.887z"/><path fill="#E6E9EE" d="M288.226 362.943l41.887-41.773h-41.887v41.773z"/><path fill="#94D3E1" d="M233.547 31.924V23.66C233.547 10.642 223.019.113 210 .113s-23.547 10.529-23.547 23.547v8.264h-41.547v48.227h130.302V31.924h-41.661z"/><path fill="#E6E9EE" d="M210 35.434c6.502 0 11.774-5.271 11.774-11.774 0-6.502-5.272-11.773-11.774-11.773-6.502 0-11.774 5.271-11.774 11.773 0 6.503 5.272 11.774 11.774 11.774zM258.226 283.132H124.075V148.981h134.151v134.151zM137.321 270h107.773V162.226H137.321V270z"/><path fill="#2573E8" d="M200.264 256.302l-49.358-49.359 23.32-23.32 26.038 26.037 72.34-72.226 23.321 23.321-95.661 95.547z"/></g><defs><clipPath id="clip0"><path fill="#fff" d="M0 0h420v420H0z"/></clipPath></defs></svg>