<svg xmlns="http://www.w3.org/2000/svg" fill="none" viewBox="0 0 360 360"><path fill="#EEEFEE" d="M171.512 28.1h16.974v140.335h-16.974V28.1zM171.512 191.562h16.974v140.335h-16.974V191.562z"/><path fill="#E6E9EE" d="M171.512 28.1h16.974v140.335h-16.974V28.1z"/><path fill="#EEEFEE" d="M171.512 191.562h16.974v140.335h-16.974V191.562zM182.147 165.828l99.217-99.217 12.001 12.001-99.217 99.217-12.001-12.001z"/><path fill="#EEEFEE" d="M66.56 281.391l99.217-99.217 12.001 12.001-99.217 99.217-12-12.001z"/><path fill="#E6E9EE" d="M182.147 165.828l99.217-99.217 12.001 12.001-99.217 99.217-12.001-12.001zM66.56 281.391l99.217-99.217 12.001 12.001-99.217 99.217-12-12.001z"/><path fill="#EEEFEE" d="M191.567 171.516h140.335v16.974H191.567v-16.974zM28.104 171.511H168.44v16.975H28.104v-16.975z"/><path fill="#E6E9EE" d="M191.567 171.516h140.335v16.974H191.567v-16.974zM28.104 171.511H168.44v16.975H28.104v-16.975z"/><path fill="#EEEFEE" d="M182.133 194.185l12.001-12.001 99.217 99.217-12.001 12-99.217-99.216zM66.573 78.601l12.001-12 99.217 99.216-12.001 12.001-99.217-99.217z"/><path fill="#E6E9EE" d="M182.133 194.185l12.001-12.001 99.217 99.217-12.001 12-99.217-99.216zM66.573 78.601l12.001-12 99.217 99.216-12.001 12.001-99.217-99.217z"/><path fill="#8BAFE7" d="M180.001 234.297c29.987 0 54.296-24.31 54.296-54.297s-24.309-54.296-54.296-54.296-54.296 24.309-54.296 54.296 24.309 54.297 54.296 54.297z"/><path fill="#8C83ED" d="M207.481 33.694c3.056-15.205-6.792-30.009-21.997-33.065-15.204-3.057-30.008 6.791-33.064 21.996-3.057 15.205 6.791 30.008 21.996 33.065 15.205 3.056 30.008-6.792 33.065-21.996zM180.002 359.993c15.515 0 28.092-12.577 28.092-28.092 0-15.515-12.577-28.093-28.092-28.093-15.515 0-28.093 12.578-28.093 28.093s12.578 28.092 28.093 28.092z"/><path fill="#A1C3F8" d="M287.411 100.685c15.515 0 28.093-12.578 28.093-28.093S302.926 44.5 287.411 44.5s-28.092 12.577-28.092 28.092c0 15.515 12.577 28.093 28.092 28.093zM72.59 315.501c15.516 0 28.093-12.577 28.093-28.092 0-15.515-12.577-28.093-28.092-28.093-15.515 0-28.093 12.578-28.093 28.093s12.578 28.092 28.093 28.092z"/><path fill="#2573E8" d="M331.903 208.089c15.515 0 28.092-12.577 28.092-28.092 0-15.515-12.577-28.093-28.092-28.093-15.515 0-28.093 12.578-28.093 28.093s12.578 28.092 28.093 28.092zM33.583 207.472c15.205-3.056 25.053-17.86 21.997-33.065-3.057-15.204-17.86-25.052-33.065-21.996C7.31 155.468-2.538 170.271.518 185.476c3.057 15.205 17.86 25.053 33.065 21.996z"/><path fill="#94D3E1" d="M287.409 315.501c15.515 0 28.092-12.577 28.092-28.092 0-15.515-12.577-28.093-28.092-28.093-15.515 0-28.093 12.578-28.093 28.093s12.578 28.092 28.093 28.092zM72.595 100.683c15.515 0 28.092-12.577 28.092-28.092 0-15.515-12.577-28.093-28.092-28.093-15.515 0-28.092 12.578-28.092 28.093s12.577 28.092 28.092 28.092z"/></svg>