<svg xmlns="http://www.w3.org/2000/svg" fill="none" viewBox="0 0 80 80"><rect width="80" height="80" fill="#F8FAFF" rx="40"/><g fill="#8BAFE7" clip-path="url(#clip0)"><path d="M47.56 38.46l-2.24 2.24c.14.7.28 1.4.28 2.1 0 4.62-3.78 8.4-8.4 8.4-4.62 0-8.4-3.78-8.4-8.4 0-4.62 3.78-8.4 8.4-8.4.7 0 1.54.14 2.1.28l2.24-2.24c-1.26-.56-2.8-.84-4.34-.84-6.16 0-11.2 5.04-11.2 11.2C26 48.96 31.04 54 37.2 54c6.16 0 11.2-5.04 11.2-11.2 0-1.54-.28-3.08-.84-4.34z"/><path d="M48.4 31.6V26l-4.2 4.2v3.64l-4.2 4.2c-.84-.56-1.82-.84-2.8-.84-3.08 0-5.6 2.52-5.6 5.6 0 3.08 2.52 5.6 5.6 5.6 3.08 0 5.6-2.52 5.6-5.6 0-.98-.28-1.96-.84-2.8l4.2-4.2h3.64l4.2-4.2h-5.6zm-11.2 14c-1.54 0-2.8-1.26-2.8-2.8 0-1.54 1.26-2.8 2.8-2.8.28 0 .42 0 .7.14l-1.68 1.68c-.56.56-.56 1.4 0 1.96s1.4.56 1.96 0l1.68-1.68c.14.28.14.42.14.7 0 1.54-1.26 2.8-2.8 2.8z"/></g><defs><clipPath id="clip0"><path fill="#fff" d="M0 0h28v28H0z" transform="translate(26 26)"/></clipPath></defs></svg>