<svg xmlns="http://www.w3.org/2000/svg" fill="none" viewBox="0 0 33 40"><path fill="#8BAFE7" d="M29.1 13.613l1.787-1.787a1.173 1.173 0 1 0-1.659-1.66l-1.782 1.783a15.92 15.92 0 0 0-9.312-3.878V6.169h1.523c.647 0 1.173-.525 1.173-1.173V3.869A3.874 3.874 0 0 0 16.96 0a3.874 3.874 0 0 0-3.869 3.869v1.127c0 .648.526 1.173 1.173 1.173h1.524v1.903a15.918 15.918 0 0 0-9.276 3.861l-1.766-1.766a1.173 1.173 0 1 0-1.659 1.659l1.77 1.769A15.917 15.917 0 0 0 .983 24.014C.984 32.829 8.156 40 16.97 40c8.815 0 15.986-7.171 15.986-15.986 0-3.968-1.453-7.603-3.856-10.4zm-12.13-1.457a1.173 1.173 0 1 1 0 2.346 1.173 1.173 0 0 1 0-2.346zM6.276 25.177a1.173 1.173 0 1 1 0-2.346 1.173 1.173 0 0 1 0 2.346zm3.952 7.215a1.173 1.173 0 1 1-1.66-1.658 1.173 1.173 0 0 1 1.66 1.658zm.014-15.11a1.173 1.173 0 1 1-1.66-1.659 1.173 1.173 0 0 1 1.66 1.658zm6.709 18.59a1.173 1.173 0 1 1 0-2.346 1.173 1.173 0 0 1 0 2.346zm4.412-14.942l-1.808 1.982a2.823 2.823 0 0 1-.512 3.003 2.801 2.801 0 0 1-2.085.919 2.8 2.8 0 0 1-1.898-.738 2.803 2.803 0 0 1-.916-1.954 2.802 2.802 0 0 1 .734-2.029 2.803 2.803 0 0 1 1.954-.916c.341-.016.676.03.991.131l1.807-1.98a1.173 1.173 0 1 1 1.733 1.582zm3.975 11.476a1.173 1.173 0 1 1-1.659-1.66 1.173 1.173 0 0 1 1.66 1.66zm.014-15.11a1.173 1.173 0 1 1-1.659-1.66 1.173 1.173 0 0 1 1.66 1.66zm2.293 7.9a1.173 1.173 0 1 1 0-2.345 1.173 1.173 0 0 1 0 2.346z"/></svg>