<svg xmlns="http://www.w3.org/2000/svg" fill="none" viewBox="0 0 60 60"><g clip-path="url(#clip0)"><path fill="#4B729F" d="M49.788 32.57c-.97-1.225-.693-1.77 0-2.865.012-.012 8.02-11.077 8.845-14.83l.005-.002c.41-1.368 0-2.373-1.983-2.373h-6.56c-1.67 0-2.44.863-2.852 1.828 0 0-3.34 7.995-8.066 13.177-1.524 1.498-2.23 1.978-3.062 1.978-.41 0-1.047-.48-1.047-1.848V14.872c0-1.64-.468-2.372-1.85-2.372H22.901c-1.047 0-1.67.765-1.67 1.477 0 1.556 2.363 1.913 2.608 6.288v9.492c0 2.08-.378 2.463-1.215 2.463-2.23 0-7.643-8.027-10.85-17.215-.648-1.783-1.28-2.503-2.963-2.503H2.25c-1.873 0-2.25.863-2.25 1.828 0 1.705 2.23 10.182 10.37 21.383C15.795 43.358 23.435 47.5 30.385 47.5c4.177 0 4.687-.92 4.687-2.502 0-7.305-.377-7.995 1.715-7.995.97 0 2.64.48 6.54 4.167 4.458 4.372 5.19 6.33 7.686 6.33h6.56c1.87 0 2.817-.92 2.272-2.735-1.248-3.818-9.678-11.67-10.057-12.195z"/></g><defs><clipPath id="clip0"><path fill="#fff" d="M0 0h60v60H0z"/></clipPath></defs></svg>